# xmcd
#
# Track frame offsets:
#	150
#	13996
#	27117
#	40356
#	58898
#	72658
#	87018
#	100542
#	116169
#	130421
#	144593
#	160532
#	175532
#	192626
#
# Disc length: 2762 seconds
#
# Revision: 1
# Processed by: cddbd v1.5.2PL0 Copyright (c) Steve Scherf et al.
# Submitted via: EasyCDDAExtractor 15.2.0.1
#
DISCID=c30ac80e
DTITLE=Truck Stop - Wir sind alle Cowboys CD2
DYEAR=2009
DGENRE=Country
TTITLE0=Country Sommernacht
TTITLE1=Take it easy, altes Haus
TTITLE2=Arizona-Arizona
TTITLE3=Route 66
TTITLE4=Ich bin verliebt
TTITLE5=Ich tanz nicht gern
TTITLE6=Tausend Meilen
TTITLE7=Cowboys
TTITLE8=Du bist immer auf Achse
TTITLE9=Da kommt die Country-Music
TTITLE10=California
TTITLE11=Echte Kerle
TTITLE12=Heimat ist überall
TTITLE13=Louisiana Ladies
EXTD=
EXTT0=
EXTT1=
EXTT2=
EXTT3=
EXTT4=
EXTT5=
EXTT6=
EXTT7=
EXTT8=
EXTT9=
EXTT10=
EXTT11=
EXTT12=
EXTT13=
PLAYORDER=
